<svg width="16" height="17" viewBox="0 0 16 17" fill="none" xmlns="http://www.w3.org/2000/svg">
<path d="M12 5.83331L12.6325 6.04413C13.2925 6.26414 13.6225 6.37414 13.8112 6.63603C14 6.89792 14 7.24578 14 7.9415V11.7193C14 12.5799 14 13.0102 13.7735 13.2866C13.6966 13.3805 13.6032 13.4596 13.498 13.52C13.1881 13.698 12.7636 13.6273 11.9148 13.4858C11.0771 13.3462 10.6583 13.2764 10.2432 13.3111C10.0976 13.3233 9.95283 13.3451 9.81001 13.3762C9.40306 13.4651 9.01995 13.6567 8.25375 14.0398C7.25393 14.5397 6.75403 14.7896 6.22189 14.8667C6.06162 14.8899 5.89986 14.9014 5.73792 14.9011C5.20023 14.9001 4.67457 14.7248 3.62325 14.3744L3.36754 14.2892C2.70753 14.0692 2.37752 13.9592 2.18876 13.6973C2 13.4354 2 13.0875 2 12.3918V9.10531C2 7.99939 2 7.44642 2.32561 7.14903C2.38258 7.09699 2.44539 7.05172 2.51278 7.01413C2.89788 6.79927 3.42246 6.97413 4.47164 7.32386" stroke="#30A1DB" stroke-width="1.5"/>
<path d="M4 5.63352C4 3.53472 5.79086 1.83331 8 1.83331C10.2091 1.83331 12 3.53472 12 5.63352C12 7.71587 10.7233 10.1458 8.73147 11.0147C8.26713 11.2173 7.73287 11.2173 7.26853 11.0147C5.27666 10.1458 4 7.71587 4 5.63352Z" stroke="#30A1DB" stroke-width="1.5"/>
<circle cx="8.00002" cy="5.83333" r="1.33333" stroke="#30A1DB" stroke-width="1.5"/>
</svg>
