<svg width="236" height="157" viewBox="0 0 236 157" fill="none" xmlns="http://www.w3.org/2000/svg">
<path d="M104.582 1.29621C116.279 -0.638611 128.789 -0.325471 139.594 5.05388C152.005 10.7464 161.549 23.0148 162.474 36.8711C163.367 52.5726 157.769 67.9387 149.775 81.2139C133.205 107.931 106.656 128.374 76.573 137.366C59.2007 142.331 39.6316 143.36 22.9621 135.42C5.51185 126.943 -3.34146 105.348 1.16327 86.7384C5.02124 69.9964 17.5876 56.6657 32.005 48.0995C35.3165 45.8847 39.3085 44.3864 41.5829 40.9082C56.993 20.8114 79.4719 5.65786 104.582 1.29621ZM47.8607 40.3379C51.8971 38.1346 56.2958 37.0005 60.8787 36.9891C61.8302 37.0391 61.9777 38.3879 61.0593 38.6434L60.1929 38.8842C55.2087 40.0694 50.1687 41.1991 45.5082 43.447C37.0043 56.943 32.0646 74.1726 32.3826 90.5559C32.4748 95.3035 29.0044 99.8652 26.1919 96.045C25.5911 95.2285 25.2143 94.4402 25.1364 93.9852C22.6499 78.0711 27.7344 61.8885 36.1975 48.5018C30.3881 52.3492 24.8354 56.7554 20.5313 62.2913C12.9714 71.8083 8.86811 84.0322 9.41445 96.2108C9.51481 107.518 14.198 119.148 23.3523 126.071C34.2462 134.447 48.6745 136.494 62.0325 135.353C82.4268 133.329 101.683 124.337 117.862 111.957C133.562 99.8119 146.92 83.6407 152.662 64.3599C156.242 51.7338 156.007 37.2511 148.793 25.9113C142.281 14.9623 130.228 8.12926 117.773 6.58586C90.4769 3.23104 62.8799 17.6691 47.8607 40.3379Z" fill="#30A1DB"/>
<path d="M181.553 125.578C189.336 116.352 199.326 108.032 211.436 105.616C214.457 105.314 219.709 104.397 220.501 108.501C220.622 112.101 217.977 114.902 214.911 116.707C212.945 117.864 210.4 116.591 211.604 114.651C212.739 112.821 214.818 111.066 214.647 108.803C210.879 107.528 206.965 108.96 203.631 110.727C197.576 114.015 192.001 118.432 187.92 124.036C186.448 126.093 184.92 129.549 187.329 131.506C190.919 134.033 195.424 131.875 199.014 130.443C201.013 129.72 202.767 128.524 204.527 127.35C207.202 125.565 209.878 127.879 209.295 131.047C209.222 131.445 209.151 131.844 209.083 132.244C218.628 133.083 227.348 128.073 236 124.751V127.111C227.983 130.488 219.988 134.111 211.525 136.214C208.86 136.673 205.515 137.713 203.341 135.51C203.452 133.955 203.753 132.423 204.021 130.891C197.23 134.671 189.514 139.099 181.497 137.601C177.673 136.371 178.687 131.965 179.546 129.034C172.187 132.177 164.738 135.532 156.777 136.74C154.023 137.176 149.942 136.662 149.607 133.195C149.384 127.648 152.908 122.95 154.848 117.985C143.675 123.018 134.566 131.774 123.237 136.494C121.063 137.802 118.186 135.521 119.479 133.139C121.843 127.95 126.649 124.494 129.693 119.752C124.165 121.966 119.045 125.165 113.581 127.5C110.872 128.658 109.563 126.755 112.297 125.658C112.685 125.502 113.068 125.345 113.436 125.176C121.029 122.089 127.909 117.583 134.855 113.288C136.428 112.382 139.605 110.872 139.249 114.071C137.754 120.725 128.823 123.733 129.292 131.036C136.662 127.759 142.996 122.66 149.842 118.477C154.265 115.895 158.335 112.504 163.183 110.783C164.258 110.402 165.262 111.34 164.905 112.426C162.908 118.489 157.152 123.093 157.023 129.817C157.402 133.463 162.085 132.546 164.56 131.987C170.358 130.309 176.312 128.609 181.553 125.578Z" fill="#30A1DB"/>
<path d="M84.1994 32.3975C87.2096 27.0856 91.7481 22.2765 97.7244 20.4874C107.392 17.6354 118.163 22.8582 123.214 31.313C126.013 36.01 126.303 41.7025 125.857 47.0259C124.909 57.1246 121.251 66.653 118.051 76.1923C117.082 79.6254 115.944 83.7745 118.13 86.9842C119.78 89.3104 123.615 88.7624 124.953 86.3579C125.374 85.3244 124.949 84.4111 124.417 83.5315C123.999 82.8433 122.868 82.8313 122.464 83.5277C122.126 84.1099 121.225 83.8691 121.223 83.195C121.222 82.9009 121.221 82.6106 121.22 82.3349C121.218 81.6451 121.615 80.9845 122.292 80.8606C124.769 80.4088 127.042 82.2643 127.217 84.9825C127.73 90.183 119.68 92.0618 116.948 88.1253C115.366 86.1296 115.817 83.1107 114.761 81.0052C114.552 80.5909 113.993 80.5621 113.64 80.8622C113.536 80.9503 113.476 81.046 113.426 81.1732C110.276 89.1174 103.861 95.1029 97.4571 100.483C87.0984 108.703 75.4016 115.983 62.1548 118.175C77.5427 110.828 92.6736 102.015 103.935 88.9304C106.701 85.5196 109.455 81.6608 109.778 77.1432C110.079 74.3358 108.228 72.0432 106.89 69.773C96.286 76.8632 84.0655 81.9294 75.4683 91.7041C71.3766 95.9423 68.611 101.187 65.7234 106.276C64.7306 100.237 66.6711 93.9743 71.2204 89.8475C83.5971 78.0826 101.493 74.638 113.748 62.6714C111.796 65.1765 109.421 67.3239 107.068 69.4376C110.67 71.0658 113.277 73.9525 114.539 77.677C114.622 77.9233 114.847 78.094 115.106 78.1C115.39 78.1065 115.646 77.9157 115.713 77.6395C118.242 67.195 121.545 56.7131 121.006 45.8293C120.906 39.186 118.776 32.1067 113.469 27.7902C108.685 23.6411 101.627 22.612 95.7845 24.9045C91.4022 26.5153 88.0798 29.9375 84.1994 32.3975Z" fill="#30A1DB"/>
<path d="M96.7437 27.2759C100.201 26.1908 104.148 25.3074 107.493 27.2759C115.856 31.8496 120.438 43.134 116.235 52.0138C117.205 43.682 113.726 34.8467 106.657 30.1273C103.791 28.0136 100.122 27.8348 96.7437 27.2759Z" fill="#30A1DB"/>
<path d="M79.2826 42.5299C79.1042 39.5214 80.9329 36.9157 82.9287 34.858C83.9436 37.5311 84.6457 40.3939 86.3964 42.7088C89.2954 46.8356 94.0459 49.1172 97.1232 53.0646C99.4979 56.2183 98.6283 60.3674 98.3832 64.0136C97.647 60.8148 97.558 57.3371 95.7738 54.4961C94.0231 52.1252 91.3583 50.7161 89.1951 48.7704C86.2522 46.3305 84.4055 42.9447 82.2276 39.8579C81.95 39.4654 81.3672 39.6198 81.3482 40.1009C81.2295 43.1448 82.2471 46.0614 83.1965 48.927C81.468 47.1264 79.3162 45.2476 79.2826 42.5299Z" fill="#30A1DB"/>
<path d="M65.7793 44.1517C71.722 40.4163 79.8508 45.1356 80.4195 51.9355C76.6059 47.6853 71.934 43.5814 65.7793 44.1517Z" fill="#30A1DB"/>
<path d="M50.6259 61.4862C48.5965 54.0715 54.6401 46.5562 62.1443 46.3659C58.175 48.815 54.3278 52.2258 53.6701 57.1469C52.6606 64.1615 57.3341 70.0557 58.496 76.7028C58.6381 77.5166 58.0791 78.2897 57.2555 78.3125C55.8491 78.3506 54.5067 77.9809 53.3817 77.1356C52.7479 76.6588 52.7609 75.7482 53.2706 75.1398C53.4413 74.936 53.6127 74.7321 53.7829 74.5272C54.0974 74.1499 54.7111 74.3472 54.7436 74.8376C54.754 74.9969 54.7648 75.154 54.7745 75.3035C54.8017 75.7069 55.0229 76.0711 55.3677 76.2809C56.1457 76.7555 57.1352 76.2483 57.0132 75.3432C56.336 70.3324 51.1512 66.7841 50.6259 61.4862Z" fill="#30A1DB"/>
<path d="M95.4058 45.9185C97.7469 49.1842 100.825 51.7338 103.902 54.2612C105.945 55.772 106.332 58.2657 106.634 60.6479C106.725 61.3721 107.488 61.7869 108.126 61.4368C111.385 59.6482 114.203 57.1659 117.082 54.8321C114.272 60.7589 108.005 63.6331 102.352 66.1719C94.7031 69.7061 86.1954 70.925 78.7026 74.8392C70.1949 79.1334 60.8506 83.6739 56.2237 92.5315C52.2875 99.3869 53.001 107.663 54.9859 115.021C52.1422 108.255 49.7231 100.517 52.499 93.3144C56.0117 84.2219 64.9987 79.1112 73.1497 74.7609C76.3133 72.8968 80.2337 71.9356 82.7017 69.082C82.7412 69.0364 82.7727 68.9836 82.7938 68.9276C83.7502 66.4111 83.6949 63.6673 83.8776 60.9828C83.9123 60.468 84.57 60.3185 84.8492 60.7523C86.634 63.5249 88.8884 66.2464 92.2547 66.8178C92.3105 66.8275 92.3675 66.8275 92.4233 66.8183C96.3882 66.185 100.126 64.6318 103.821 63.1117C104.302 62.9144 104.576 62.4034 104.495 61.8891C104.114 59.4508 103.953 56.775 101.906 55.1115C99.0627 52.5618 96.6322 49.587 95.4058 45.9185Z" fill="#30A1DB"/>
<path d="M57.0925 62.7273C53.6584 57.9633 56.8138 51.4206 62.1439 49.9C60.6052 51.5548 58.687 52.9531 57.684 55.0217C56.4012 57.4039 57.0817 60.1661 57.0925 62.7273Z" fill="#30A1DB"/>
<path d="M65.7797 52.6285C66.9503 54.7085 68.9796 56.7439 68.3664 59.3387C67.6974 62.7832 66.3371 66.0375 65.3335 69.3814C64.4547 65.5759 66.471 62.1733 67.2029 58.5776C67.2615 58.29 67.2642 57.9937 67.2111 57.7045C66.8907 55.9747 66.2737 54.3204 65.7797 52.6285Z" fill="#30A1DB"/>
<path d="M71.4881 53.2435C72.6479 54.3846 75.2351 55.0109 74.7775 57.0463C73.8634 60.9828 71.7782 64.5393 70.4515 68.3416C69.5591 65.1988 71.2989 62.4588 72.6256 59.7748C74.0082 57.6166 72.0124 55.3686 71.4881 53.2435Z" fill="#30A1DB"/>
<path d="M106.118 145.935H99.8936V156.59H101.639V152.267H105.966V150.593H101.639V147.609H106.118V145.935Z" fill="white"/>
<path d="M121.337 155.19C122.415 154.109 122.947 152.8 122.947 151.263C122.947 149.725 122.415 148.416 121.337 147.351C120.275 146.27 118.969 145.737 117.436 145.737C115.903 145.737 114.597 146.27 113.519 147.351C112.457 148.416 111.925 149.725 111.925 151.263C111.925 152.8 112.457 154.109 113.519 155.19C114.597 156.256 115.903 156.788 117.436 156.788C118.969 156.788 120.275 156.256 121.337 155.19ZM114.749 154.003C114.035 153.272 113.671 152.359 113.671 151.263C113.671 150.167 114.035 149.254 114.749 148.538C115.478 147.807 116.373 147.442 117.436 147.442C118.499 147.442 119.394 147.807 120.108 148.538C120.836 149.254 121.201 150.167 121.201 151.263C121.201 152.359 120.836 153.272 120.108 154.003C119.394 154.718 118.499 155.084 117.436 155.084C116.373 155.084 115.478 154.718 114.749 154.003Z" fill="white"/>
<path d="M129.049 153.059C129.049 154.201 129.429 155.099 130.173 155.784C130.917 156.453 131.888 156.788 133.072 156.788C134.256 156.788 135.228 156.453 135.972 155.784C136.716 155.099 137.095 154.201 137.095 153.059V145.935H135.349V152.952C135.349 154.246 134.59 155.083 133.072 155.083C131.554 155.083 130.795 154.246 130.795 152.952V145.935H129.049V153.059Z" fill="white"/>
<path d="M150.186 153.166L145.176 145.935H143.81V156.59H145.555V149.36L150.565 156.59H151.931V145.935H150.186V153.166Z" fill="white"/>
<path d="M158.76 145.935V156.59H162.934C164.392 156.59 165.606 156.073 166.563 155.053C167.534 154.018 168.02 152.755 168.02 151.263C168.02 149.756 167.534 148.492 166.563 147.472C165.606 146.453 164.392 145.935 162.934 145.935H158.76ZM160.506 154.916V147.609H162.934C163.936 147.609 164.756 147.96 165.379 148.645C166.016 149.33 166.335 150.197 166.335 151.263C166.335 152.313 166.016 153.196 165.379 153.881C164.756 154.566 163.936 154.916 162.934 154.916H160.506Z" fill="white"/>
<path d="M182.722 156.59L178.882 145.935H176.787L172.931 156.59H174.828L175.572 154.444H180.096L180.84 156.59H182.722ZM177.834 147.99L179.519 152.8H176.149L177.834 147.99Z" fill="white"/>
<path d="M186.98 145.935V147.609H189.986V156.59H191.732V147.609H194.722V145.935H186.98Z" fill="white"/>
<path d="M200.719 156.59H202.465V145.935H200.719V156.59Z" fill="white"/>
<path d="M218.175 155.19C219.253 154.109 219.784 152.8 219.784 151.263C219.784 149.725 219.253 148.416 218.175 147.351C217.113 146.27 215.807 145.737 214.274 145.737C212.741 145.737 211.435 146.27 210.357 147.351C209.295 148.416 208.763 149.725 208.763 151.263C208.763 152.8 209.295 154.109 210.357 155.19C211.435 156.256 212.741 156.788 214.274 156.788C215.807 156.788 217.113 156.256 218.175 155.19ZM211.587 154.003C210.873 153.272 210.509 152.359 210.509 151.263C210.509 150.167 210.873 149.254 211.587 148.538C212.315 147.807 213.211 147.442 214.274 147.442C215.336 147.442 216.232 147.807 216.946 148.538C217.674 149.254 218.039 150.167 218.039 151.263C218.039 152.359 217.674 153.272 216.946 154.003C216.232 154.718 215.336 155.084 214.274 155.084C213.211 155.084 212.315 154.718 211.587 154.003Z" fill="white"/>
<path d="M232.459 153.166L227.449 145.935H226.083V156.59H227.829V149.36L232.838 156.59H234.205V145.935H232.459V153.166Z" fill="white"/>
</svg>
